# xmcd
#
# Track frame offsets:
# 150
# 11838
# 21443
# 33159
# 41831
# 51412
# 63271
# 74687
# 82558
# 93529
# 104783
# 117227
#
# Disc length: 1721 seconds
#
#
# Revision: 0
# Processed by: cddbd v1.4PL0 Copyright (c) Steve Scherf et al.
# Submitted via: FreeRIP 2.00 
#
DISCID=a506b70c
DTITLE=Jim Reeves - Jim Reeves
DYEAR=1900
DGENRE=Country
TTITLE0=Teardrops In My Heart
TTITLE1=I Get The Blues When It Rains
TTITLE2=You Belong To Me
TTITLE3=Everywhere You Go
TTITLE4=Need Me
TTITLE5=I Care No More
TTITLE6=My Happiness
TTITLE7=Yours (Quiereme Mucho)
TTITLE8=That's My Desire
TTITLE9=Blues In My Heart
TTITLE10=I Don't See Me In Your Eyes Anymore
TTITLE11=Final Affair
EXTD=
EXTT0=
EXTT1=
EXTT2=
EXTT3=
EXTT4=
EXTT5=
EXTT6=
EXTT7=
EXTT8=
EXTT9=
EXTT10=
EXTT11=
PLAYORDER=
